<?xml version="1.0" encoding="utf-8"?>
<!-- Generator: Adobe Illustrator 25.1.0, SVG Export Plug-In . SVG Version: 6.00 Build 0)  -->
<svg version="1.1" id="Calque_1" xmlns="http://www.w3.org/2000/svg" xmlns:xlink="http://www.w3.org/1999/xlink" x="0px" y="0px"
	 viewBox="0 0 100 100" style="enable-background:new 0 0 100 100;" xml:space="preserve">
<style type="text/css">
	.st0{fill:#FFFFFF;}
</style>
<path class="st0" d="M56.6,34.2c0,0-6.5,8.1-6.2,8.6c0.5-0.5-2.3-8.7-2.3-8.7s-0.6-1.7-2.4-7.3H39H22.8H10.6l-1.2,5.3h9.2h2.2
	c5.9,0,9.5,2.4,8.5,6.8c-1.1,4.7-6.2,6.7-11.7,6.7h-2.1L18.1,34H8.9L5,50.9h13c9.8,0,19.1-5.3,20.8-12c0.3-1.2,0.3-4.4-0.5-6.2
	c0,0,0-0.1-0.1-0.3c0,0-0.1-0.3,0.1-0.4c0.1,0,0.2,0.1,0.2,0.2c0,0,0.1,0.2,0.2,0.4l8.3,24l21.1-24.4l8.9,0h2.2
	c5.9,0,9.6,2.4,8.6,6.8c-1.1,4.7-6.3,6.7-11.8,6.7H74L76.7,34h-9.2l-3.9,16.8h13c9.8,0,19.2-5.3,20.8-12c1.6-6.8-5.3-12-15.2-12
	h-8.6H62.7C57.6,33,56.6,34.2,56.6,34.2L56.6,34.2z"/>
<path class="st0" d="M47.3,56.6c-24.8,0-45,2.9-45,6.5c0,3.6,20.1,6.5,45,6.5c24.9,0,45-2.9,45-6.5C92.4,59.5,72.2,56.6,47.3,56.6z
	 M45.8,65.4c-5.7,0-10.3-1-10.3-2.2C35.5,62,40,61,45.8,61c5.7,0,10.2,1,10.2,2.2C56,64.4,51.4,65.4,45.8,65.4z"/>
<polygon class="st0" points="87.1,69.6 87.1,69.1 84.3,69.1 84.2,69.6 85.4,69.6 84.9,73.2 85.5,73.2 85.9,69.6 "/>
<polygon class="st0" points="91.2,73.2 91.2,69.1 90.7,69.1 89.2,71.9 88.6,69.1 88.1,69.1 86.8,73.2 87.3,73.2 88.3,70.1 89,73.2 
	90.6,70.1 90.7,73.2 "/>
</svg>
